<svg xmlns="http://www.w3.org/2000/svg" id="Layer_1" viewBox="0 0 512 512"><path d="M21.9,506l16.1-7.5c3-.9,7.5.4,10.4-.4,2.5-.7,4.5-6.4,6.2-6.9,3-.9,9.4,3.2,13.3,1.6.1-3.8,3.3-5.9,5.8-8.2,2.5,0,7,4.2,9.2,2.6,1.1-1.3.2-3.1.8-4.5.4-.9,3.2-2,4.1-3.6.7-1.2.8-3.8,1-4,.1-.2,3.2-.8,4.3-1.4,1.4-.8,2.3-2.5,3.8-3.4,6-3.9,5.8.6,9.8,3.7,2.5,2,5.7,3,8.4,5.1,1.4,1.1.8,2.7,3.7,2.4,1.4-.2,2.2-1.5,4.1-1.1,1.1.2,6.7,5.1,7,4.7-2.4-7.3,3.4-10.7,6.6-15.8,1.8-3,1.5-4.8,2.2-7.3.6-2.2,6.1-9,7.5-11.7,2.9-5.6,3.6-12.1,6.9-17.5,3.4-5.6,10-10.2,13.5-15.2.8-1.1.6-2.9,1.3-4.1.8-1.4,2.6-1.5,3-3,.6-2,0-4,.3-5.7.2-1.1,1.3-1.7,1.8-3,.9-2.4.3-4.7.8-7,.9-4.3,5.7-16.8,3.7-20.2-.2-.3-.8-.8-.9-.6l-1.8,13.1-16.3-5.9-.4-1.5,11.2-27.1c.4-2.2-2.6-1.9-2.9-4.1-.1-.9.7-4.5,1.2-5.4,1.4-2.9,5.7-2.8,5.9-6.1.1-1.5-.6-2.7-.5-4,0-1.1,2.3-5.1,1.8-5.7l-1.8.3c-1-.7.3-8.8.9-9.9.9-1.7,1.2,2,2.7,1.2-.5-6.6,3.8-13.5,4.6-19.5.7-4.9,1.3-10,1.9-14.8.9-7.1,1.1-14.3,1.9-21.4.4-1.2,2.4-.7,2.8-2,.6-1.6.3-6.4,1-7.4,4.8-2.6,1.2,6.5,1.5,8.6,0,.4,1.2.1,1.3,1.2.1,2.9-1.7,7.4-1,10.5,2.1-1.9,2.1-5.2,3.4-7.4.8-1.4,3.7-3.3,4.1-4.3.5-1.2-2.4-1.2-3.3-2.7-.5-.8-3.2-7.7-3.6-8.9-3.3-10.2,6.2-21.2,16.6-20.2,4.1.4,7.4,3.8,11.6,3.5,1.9-3.4,3.5-7,5.3-10.6,1.8-3.7,4.3-7.5,5.8-10.9,1.8-3.8,2.8-10.2,4.9-13.6.7-1.1,1.7-1.1,2.3-2.5,2.4-6-1.2-16.8,1.9-23.7-26.9-52.7-57.4-103.9-84.3-156.6-.9-1.8-4.4-7.4-3.6-9,.6-1.2,3.3-1.7,4.4-1.1.8.5,4.4,9,5,9.3.6.4,2.1,0,2.9,0,0,1.6.3,2.2-1.2,2.7l65.3,120.2,3.4.7-2.4-6.6c.7-.6,15-.8,17-.6,6,.6,11.1,4.8,17.3,4.2,6.4-.6,18.7-10.3,24.2-5.1,2.8,2.7-1.3,8.4,7.5,9.2,9.1.9,18.1-2.8,27.2-.6v-2.4c5.9.8,10.8-3.3,16.3-4.9,5.2-1.6,12-3.1,17.3-1.5,1.6.5,8.7,4.8,9.4,4,.5-2.3-1.4-3.3-2.4-5.1-.9-1.5-.8-3.6-2.7-3.9-2.4-.4-14.2-.4-16.7,0-3.2.5-9.7,5.3-12,5.4l-14-5.4,2.4,5.4c-1.1.1-2.2-.5-3.3-.6-6.2-.3-24.4,2-28.6-.5-2-1.2-1.5-7.4-5.5-7.8-5.7-.5-15.6,5.9-22.6,6-5.6,0-9.5-4.3-14.9-4.8-6.3-.6-12.8.7-19,1.2l-2.8-7.8c6.2-.4,14.3-2.3,20.5-1.1,3.8.8,7.3,5.2,12.7,5.2,6.1,0,17.9-7.2,22.6-4.7,1.6.8,2.8,3.1,5,3.9,1,.4,5,1.4,5.8,1.4h23.9c.3,0,1.6,1.3,2.1.3-2.5-4.5-3.4-8.4-9.3-9.2-8.2-1.1-18.5.9-26.8,0-3.1-.4-4.4-2.4-6.7-2.8-8.1-1.7-18,6.3-25.4,3.3-2-.8-3.6-2.9-5.7-3.9-6.8-3.1-15.7-.6-22.8.4l-3.1-7.1c4.9-1,11.3-2.8,16.3-1.7,1.9.4,3.9,2.9,5.8,3.8,8.1,4.1,15.3-1.7,23-2.1,4-.3,7.6,1.1,11.3,1.2,6,.3,21.1-1.2,25.6.6,1.6.7,2.8,2.4,4.4,2.8,3.1.7,6.8-.5,10,1.4,2.3,1.4,1.3,4,2.8,5.6,1.2,1.2,15.8,8.5,17.9,9,2.7.7,9.1,1.8,11.7,1.5,5.2-.6,5.8-6,13.2-2.4,2.5,1.2,8.3,7.3,8.6,9.9.4,3.1-1.8,3.9-1.8,5.9.1,2.6,3.2,6.7,2.9,9.5-.3,1.9-3.2,4.6-3.4,6.2-.1,1.3,1.9,1.8,1.7,2.9l-6,1.8-.6-3.9c-.3-.3-8,.5-9.1.7-4.7,1-7.8,1.5-12.6,2.3-4.2.7-12.1,3.9-15.4,3.4-7.2-1.1-5.9-7.4-7-13l-13.4,1.2c-3.1-.1-10.9.7-12.4-2.6-.9-1.9-.5-5.4-2-7-5.2-5.9-23.1,5.2-29.2,5.3-3.2,0-4.9-2.3-7.5-3.2-4.4-1.5-14.6-1.6-18.8.3l-.6-1.2-1.5.9,18.2,32.6c.8.9,3.4-1.3,4.7,1.2.5.8,3.8,8.2,3.8,8.7.1,1.4-1.6,2.2-1.4,3.2.1.6,5.8,11.1,6.2,11.5,1.2,1,3.6-.2,4.9.7.2.1,1.8,2.9,2,3.4.2.5,2.1,5.4,2.1,5.7.1,1.9-1.8,3.1-1.7,4,0,.2,2.3,3.9,2.5,4,1.2.8,2.6.3,3.9.9,1.7.7,4.7,6.7,4.8,8.4.1,1.8-1.4,3-.9,5,.2.9,6.1,11.5,7,12.8,1.4,1.9,1.8-.7,3.7-.2,2.6,2.2,6.7,7.7,7,11,.1,1.9-1.7,2.9-1.5,3.9.1.7,6,11,6.6,11.4,1.5,1.1,4,.3,5.9.7,3.6.7,7.9,4,11.6,2.4,2.5-1.1,3.2-4.8,7.3-1.9.1-1.8-2.6-2-3.3-3.6-.9-2.1,1.6-2.9,2.6-4.6,2.3-3.7,3.1-8.2,6.1-11.8,7.4-9.1,22.4-6.9,27.8,3.3,2,3.8,2.1,8,3.7,11.2.8,1.6,4.5,4.3,3.2,6.3-1.5,2.2-7.9,0-10,1.6-1.8,1.4.7,4.6-.5,6.7-.5.7-2.1.3-3,1.1-2.4,2.2-2.1,8.1-6.3,6.9-1.7-.5-4-3.6-5.4-1.8-.2,1.1,9.9,10.7,11.2,12.6,2.8,4.2,3.9,11.6,3.7,16.6-.3,7.1-.9,15.5,0,22.6,1,7.5,3.2,11.6,2.4,20.4-.2,2.4-1.7,4.1-1.8,6-.2,2.4,1.1,5.4.6,8.3-.5,2.5-3.6,2-2.9,6.5.2,1.2,4.2,9.3,5.1,10.5,4.1,5.4,12.2,7.7,9.5,17.3l26.3,45.4c1.1,0,5.3-6.9,6.3-7.4,1.3-.7,5.9-.7,7.8-2.1.7,3.6,5.2,12.2,8.8,13,1.8.4,3.8-.3,5.6.4l3,7.8,8.7,2.1c1.2,1.7,3.5,9.3,4.9,10.2,2.5,1.6,6.5-.9,9.2-1,1.8,4.7,4.8,12.7,11,12.3,2.4-.1,6.7-2.9,8.7-1.5,1,.7,1.6,5.7,3.5,7.2,2,1.6,4.8.9,6.4,2,1.1.8,2.4,4.8,4.4,5.7l6.6,4.5H21.9ZM321.1,154.2c5.8.3,10.6-3.4,16-4.6,4-.9,7.4-.4,11.1-.8,6.2-.7,10-5.4,15.6,1.7,5.6-2.4.8-10-3.8-10.9-3.4-.7-12.5.4-16.4,1-6.7,1.1-13.1,3.3-19.5,5.3,2.4,4.3-1.9,5-3,8.4ZM249.9,220.4c3.9-3.2,2-15.2,5.4-19.3l-3.8-6.8c-1.4,0-5,7.2-4.9,8.7.2,1.4,4.7,3,3.9,5.8-.2.6-2,2.5-2.6,4-2.1,4.9-2.7,10.4-5.1,15.2-.1,1.7.7.5,1.1-.1,1-1.6,2.5-5.4,3.6-6.5.8-.8,1.8-.6,2.2-1ZM263.2,233.7c1-3.3.8-6.6,1.2-9.8,0-.7,2.2-4.4.3-4.5-1.1,0-6.3,5.5-6.3,6.9,1.8,3,3.5,3.7.6,6.9l4.2.6ZM266.8,273.1c1.1.2,1.5-.5,2.1-1.2,2.2-2.8,3.8-8.1,5.7-10.4,1.1-1.3,4.3-2.8,4.7-4.3.3-1.2-.8-4.3-.5-6.4.2-1.7,1.7-3.5,1.5-4.5-.1-.7-4.9-9.3-5.4-9.5-2.1.7-4.8,1.5-4.3,4.3.1.6,2.7,6.4,3.2,7,1.4,1.8,6.6,3.4,2.9,5.9-1.8,1.2-6.9,1.5-7.7,3.1l1,6.8c-4.9,1.6-3.7,5.3-3,9.3ZM291.2,263.5c-1.5-.3-.9.3-1.2.9-1.9,3.2-2.9,5.7-3.5,9.3l8.4-1.8-3.6-8.4ZM284.7,296.4h-15.5c-.7,7.9-2.2,14.8-4.9,22.2-.9,2.4-4.5,9.3-4.6,11-.3,2.7,2.3,8.9,2.4,12.5,0,1-1.1,6.8-.3,6.8,1.7-3.7,5.3-6.5,7.4-10,1.7-2.8,4.5-9,5.8-12.2,3.9-9.7,5.9-20.7,9.9-30.4ZM336.6,334.6c-.6-.7-6,4.6-5.9,5.6l8.3,13.5c-1.2-3.4-.2-7-.6-10.4-.3-2.7-2.3-5.7-1.7-8.7ZM339.6,376.4c-2.4-3.2-.5-6.2-.3-9.6l-13.2-22.7-2.1,3.2c7.8,4.2,4.7,10.1,1.2,16.1,3.4,1.8,5.5,4.9,7.7,7.9.5.7.4,2.1.8,2.5.2.2,5,2.1,5.8,2.5ZM251.2,379.4c1.5-4.6.9-9.1,3.6-13.4-3.6-1.2-7.1-3.7-11-3.8-.9.3-3,6.9-2.7,7.9.2.6,7.3,7.7,8.3,8.5.6.5.8,1.2,1.8.9ZM337.2,410.5c-17.1-1.6-32.8-10.4-48.3-17.1-1.6-.3-13.9,12.5-16,14.5l-2.6,32.1,2.5,22.6-7.8,3c2.6,1.8,8.4,4.3,11.5,3.2,1.2-.4,1.5-3.2,4.4-3.3,1.7,0,2.5,2.1,4.5,1.6.3,0,4-3.1,4.3-3.5,1.3-1.4,2.8-5.1,4.1-6,.4-.3,6.1-1.7,6.7-1.7,1.7,0,1.7,2.6,2.6,3.9.7,1,7.4,7.8,8.4,6.9,0-3.4,4.7-5.9,5.7-8.4.3-.8-.3-1.7,0-2.4,2.3-5.7,5.9-10.7,7.9-16,3.3-8.2,3.5-16.4,8.6-24.2,1.1-1.7,3.5-2.9,3.5-5.2ZM232.7,409.9c-5.2-2.5-10.2-5.4-15.1-8.5-1.5-.9-6.1-5.4-7.6-4.4-5.6,8.5-9.8,18.7-15.3,27.2-4.6,7.1-10,11.3-14.7,19.4-6.2,10.7-12.5,23-15.5,35l-10.6-1.7c-3.5,5.5,3.9,7.2,4.7,11.9,4.9,1,4.7-5.2,5.5-5.9.2-.2,4.6-1.3,5-1.3,1.9,0,4.3,2.2,6.7,1.1l5.4-6.7c-3.8-2.9.8-8.2,3.4-10.5,2.3-2,6.6-3.2,7.8-6.6.5-1.5-1.3-2.2-.6-3.5.2-.4,5.4-5.9,6.3-6.9,3.3-3.5,8.4-7.8,11.4-11.5,4.2-5.1,4.1-10.5,10.9-15.2,1.8-1.3,5.9-2.5,6.7-3.4,1-1,.7-2.4,1.4-3.4,1-1.4,4.8-2.3,4.2-5ZM388.6,454.6l-22.7-40c-6.6,16.3-15.6,31.4-20.6,48.4-1.6,1.7-7.7,0-10-.2-.7,0-.9-.7-1.7.5,0,2,8.7,7,10.9,6.8,1.3-.1,2.6-1.3,4.3-1.1,1.3,0,2.3,1.3,2.9,1.2,1.7-.3,3.6-5,4.6-5.6,1.8-1.1,4.6.3,6,0,4.6-1,5.1-12,8.1-12.8,3-.8,8,7.7,10,7.7,3.1-1.7,3.4-5.9,8.1-4.8ZM244.1,464.7c-1-8.9,2.7-16.9-.4-25.6-2.8,3.3-6.9,6.2-9.6,9.5-2.1,2.6-3.3,5.7-5.1,8.1-1.3,1.7-3.3,2.5-4.5,3.9-1.5,1.9-5.1,12-5.8,12.4-2.5,1.6-9.9-3.4-12.7-4-3.2,3-2.1,5.7,0,8.9,2,.5,1.5-1.8,3.1-2.3,1-.3,4.1-.3,5.3-.1,2.5.3,3.4,1.9,4.9,2.3,1.5.4,3.1,0,4.6.2,2.1.3,3,2.6,4.6-.8.8-1.6.6-4.2,1.6-5.5.2-.3,4.9-4.3,5.2-4.4,2.9-.8,7.2,1.6,8.8,4.1l2.1-5.6-2.3-1Z"></path><path d="M219.4,36.8c.3.2.4,1.3,1.2,1.6,1,.3,2.2-.5,3.4-.4,2.3.2,4.6,1.8,7,1.7.7,1.5-1.2,1.1-1.2,1.5.2,1.8,2.2,1.7,3.6,1.5,1-.6-3.3-2.8-.9-2.4,5,1,9.8,3.2,14.7,4.4,11.8,3,23.1,4.9,34.4,9.8,8.1,3.5,14.6,8.5,22.1,12.5,10.3,5.5,19.1,3.2,29.7,8,10.8,4.9,17,10.3,25.1,18.5,1.6,1.6,5.4,3.1,5.7,5.7.2,2.6-1.8,2.2-2.9.5-.5-.8-.5-2.5-1.2-2.9-.3-.2-1.3.4-1.8,0-.8-.5-1.4-3.1-2.4-4.2-4.4-4.9-15.9-4.6-21.5-7.2-2.1-.9-4.5-3.8-6.7-5.2-15.7-10.2-35.5-16-54.2-16.6l2.4,8.9c4,.3,8.2-.2,12.2,0,11.8.8,41.7,9.1,49.2,18.3.9,1.1,2.2,4.1,2.8,4.5,3.6,2.6,15.7,1.6,19.6,4.7.8.6,1.2,2.3,2.1,2.7,3.8,1.8,6.1-2,4.2,6.9-2.1-.8-3.4-1.8-5.8-2.2-3.6-.7-14.1-.3-15.9-3.2-.8-1.3-.6-3-1.8-4.2-2.3-2.3-18.9-9.4-23-11-3.7-1.5-7.6-2.2-11.3-3.6-3.8-1.4-3.9-2.9-9.2-3.3-9.7-.7-21,1.1-30.5,0-2.3-.3-4.5-1.7-6.6-1.8-3.5-.1-8.6.6-13.1.6-14.9,0-29.5,4-44.4,2.3l-39.5-65c9.3,2.9,18.3,7.2,27.6,10.3,6.1,2.1,23,5.7,27.2,8.4ZM291.8,61.1c-7.8-3.9-15.9-7.1-24.5-9,1.7,5,7.1,4.3,11.5,5.5,3.8,1.1,7.4,2.5,11.2,3.7.6.2,1.9.8,1.8-.3Z"></path><path d="M310.2,92.3c10.5,7.5,22.7,10.5,33.4,17,4.5,2.7,4.4,5.5,10.1,6.1,2.5.2,5.1-.1,7.7,0l1.6-3.6c-1.3,2.5,3.2,8.5,1.2,9.9l-.9.2c-7.2-.3-11.3-6.7-18-.8-8.9-5.7-20.4-8.9-28.9-15.1-3.1-2.2-1.9-2.4-3.4-4.4-2.3-3.1-15.1-1-19.6-2.5-3-.9-5.6-4-9.2-4.6-16.6-2.8-36.7,5.9-53,4-3.7-.4-6.4-3.1-10.2-3.5-3.2-.4-6.3.1-9.4.6l-3.4-6.3c3.9-2.7,7.6.5,11,.9,17.4,2.1,38.2-7.2,53.5-3.9,4.3.9,10,3.9,14.1,4.4,5.1.7,19.8-1.1,23.4,1.4Z"></path></svg>