<?xml version="1.0" encoding="UTF-8"?>
<svg xmlns="http://www.w3.org/2000/svg" id="Layer_1" version="1.1" viewBox="0 0 512 512">
  <defs>
    <style>
      .st0 {
        fill: #231f20;
      }

      .st1 {
        fill: #fff;
      }
    </style>
  </defs>
  <g>
    <path class="st0" d="M433.6,60.2c-65.8,0-126.9-20-177.6-54.2-50.7,34.2-111.8,54.2-177.6,54.2s-23.9-.7-35.5-2v191.7c0,180.4,213.1,256.1,213.1,256.1,0,0,213.1-75.7,213.1-256.1V58.2c-11.7,1.3-23.5,2-35.5,2Z"></path>
    <path class="st1" d="M256,475.1c-17-7.2-53.9-24.6-90.2-53.1-27.9-21.9-50-46.1-65.7-71.7-19-31.1-28.6-64.9-28.6-100.4V88.8c2.3,0,4.6,0,6.9,0,63,0,124-16.8,177.6-48.9,53.6,32,114.6,48.9,177.6,48.9s4.6,0,6.9,0v161.2c0,35.5-9.6,69.3-28.6,100.4-15.7,25.7-37.8,49.8-65.7,71.7-36.3,28.5-73.2,45.9-90.2,53.1Z"></path>
  </g>
  <path class="st0" d="M256,63c-50.3,27.9-106.7,43.5-164.5,45.6v141.4c0,31.8,8.6,62,25.7,90,.8,1.3,1.5,2.5,2.3,3.7v-46.3h24.8v78.1c7.5,8.1,15.8,16,24.8,23.6v-101.7h24.8v120.7c8.5,5.9,16.9,11.2,24.8,15.9v-136.6h24.8v150.1c4.5,2.2,8.7,4.2,12.4,5.9,3.7-1.7,7.9-3.7,12.4-5.9v-150.1h24.8v136.6c7.9-4.7,16.3-10,24.8-15.9v-120.7h24.8v101.7c9-7.6,17.3-15.5,24.8-23.6v-78.1h24.8v46.3c.8-1.2,1.6-2.5,2.3-3.7,17-27.9,25.7-58.2,25.7-90V108.6c-57.8-2.1-114.2-17.7-164.5-45.6Z"></path>
  <polygon class="st1" points="265.3 129.7 280.4 118.8 261.8 118.8 256 101 250.2 118.8 231.6 118.8 246.7 129.7 240.9 147.5 256 136.5 271.1 147.5 265.3 129.7 265.3 129.7"></polygon>
  <g>
    <polygon class="st1" points="169.5 149.8 184.6 138.9 166 138.9 160.2 121.1 154.4 138.9 135.7 138.9 150.9 149.8 145.1 167.6 160.2 156.6 175.3 167.6 169.5 149.8 169.5 149.8"></polygon>
    <polygon class="st1" points="361.1 149.8 376.3 138.9 357.6 138.9 351.8 121.1 346 138.9 327.4 138.9 342.5 149.8 336.7 167.6 351.8 156.6 366.9 167.6 361.1 149.8 361.1 149.8"></polygon>
  </g>
  <g>
    <path class="st1" d="M226.6,257v-19.9h14.7c0,6.6,6.6,7.7,9.9,7.9,2.8,0,6.7-.6,6.7-3.9,0-6.1-30.3-3.5-30.3-23.6s11-16.9,18.7-16.9,13.3,2.1,16.5,8l.8-6.6h13.5v19.8h-14.3c0-5.8-4.6-9.1-10.1-9.1s-5.4,1.4-5.4,4.2c0,8.1,31.2,6.2,31.2,24.7s-11.5,16.7-20.9,16.7-13.5-3.7-16.5-7.2l-.9,6.1h-13.8Z"></path>
    <path class="st1" d="M159.8,202h25.1v10.2h-4.3v17c0,12.7,2.8,15.4,7.9,15.4s8-1.9,8-15.4v-16.7h-4.3v-10.4h23.3v10.2h-4.3v19.1c0,18.7-7.8,27.1-22.6,27.1-15.9-.5-24.4-8.8-24.4-26.7v-19.5h-4.4v-10.2Z"></path>
    <path class="st1" d="M352.2,257h-31.6v-10.3h7.5l-1.7-5.4h-16.1l-1.7,5.4h6.1v10.3h-25.1v-10.3h5.4l10.6-34.6h-3.2v-10.2h30.3l13.9,44.7h5.5v10.3ZM313.2,231.9h10.3l-5.2-17-5.1,17Z"></path>
  </g>
</svg>
